<svg width="150" height="45" fill="none" xmlns="http://www.w3.org/2000/svg"><path d="M5.588 21.307c-.456-.375-2.44-3.099-2.104-3.502h28.679c-.243 1.33-1.173 2.386-1.958 3.453-.329.198-3.012-.043-3.674.045-.2.026-.343.054-.416.267l.078 22.841-.196.1-3.132-1.947v-21.11l-.146-.146h-3.23l-.05 19.457-1.32-.877-1.91-.971V21.455l-.146-.146H12.93l-.249 1.017c.146 4.383-.177 8.87 0 13.24.018.441.126 1.01.2 1.454l-.196.1c-.947-.816-2.125-1.227-3.132-1.947V21.456l-.146-.145H5.589l-.001-.004ZM0 15.219c.056-2.816 1.071-5.654 2.638-7.974C9.705-3.22 28.103-2.138 33.806 9.128c.967 1.912 1.39 4 1.516 6.092H0v-.001Zm3.832-3.004h27.656c.2 0 .135-.436.099-.582-.48-1.942-2.833-4.657-4.423-5.855C20.63.858 9.91 1.881 5.201 8.835c-.32.473-1.585 2.706-1.52 3.135.013.089.069.22.15.245h.001Z" fill="#2680CE"/><path d="M81.634 16.482c.629-.116 1.415-.051 1.597-.82.168-.718.012-2.186.031-3.006.06-2.583.239-5.34.08-7.925-.016-.27-.068-.87-.192-1.068-.36-.574-1.294-.345-1.416-.517v-.899l.224-.073c2.925.183 5.963-.264 8.872.076 3.382.395 4.59 4.672 1.5 6.385-.36.2-.745.261-1.06.427-.653.346.903.341 1.104.54 3.179 1.26 3.126 5.56.208 7.134-1.453.783-2.567.698-4.135.697-2.212 0-4.423.007-6.634.003l-.176-.121-.002-.834v.001Zm5.17-13.192-.11.11v5.333c0 .246.894.198 1.083.19 4.016-.207 3.616-5.633.593-5.633h-1.565Zm-.112 6.814v6.036c0 .056.181.168.263.184.437.083 1.67.001 2.124-.106 1.295-.305 1.938-1.402 2.012-2.666.16-2.743-1.849-3.932-4.4-3.448h.001Zm38.93 6.411-.005.683-.11.11-4.613.526-.178-.116.066-1.609-.187-.044c-1.774 3.133-6.05 1.82-7.345-1.066-.691-1.539-.708-3.992-.11-5.561 1.073-2.811 4.74-4.245 7.457-2.873l.175-.124c-.223-1.03.224-2.178-.115-3.18-.188-.557-.919-.67-1.441-.676l.009-.876c1.101-.143 2.203-.298 3.302-.456.245-.036 1.522-.427 1.601-.1l-.065 14.212c.097.935.685 1.148 1.558 1.149h.001Zm-8.392-1.432c1.095 1 3.197.972 3.519-.707.187-.975.129-4.413.023-5.482-.2-2.046-2.563-2.118-3.717-.745-1.237 1.474-1.286 5.598.174 6.934h.001Zm19.895-7.601c0 .07.099.193-.005.332-.522-.04-.852-.599-1.446-.598-.568.002-.008.516.095.735.506 1.074.453 2.742-.176 3.748-1.069 1.71-3.243 2.116-5.112 1.954-.615-.053-1.315-.584-1.378.335-.051.755.468 1.106 1.153 1.165 2.139.184 6.25-.808 7.04 1.957.723 2.527-1.413 4.391-3.6 5.022-1.659.478-5.048.54-6.529-.406-1.382-.883-1.548-2.963-.055-3.836.182-.107 1.305-.41.986-.65-1.243-.625-1.446-2.337-.504-3.354.162-.176 1.015-.687.994-.792-.879-.527-1.704-1.365-1.913-2.414-.749-3.756 2.978-5.319 6.09-4.716.26.051 1.034.428 1.13.427.12 0 .592-.295.891-.295h2.227l.111.112c.004.424-.005.848 0 1.272l.001.002Zm-5.959-.543c-1.571.29-1.589 3.195-1.245 4.363.503 1.71 2.353 1.834 2.862.107.203-.687.192-2.7-.075-3.366-.246-.615-.827-1.238-1.541-1.105h-.001Zm-1.559 10.925c-1.835.286-1.326 2.403.042 2.99 1.165.5 4.313.541 4.893-.861.414-1.005-.068-2.018-1.163-2.15-.726-.087-3.065-.09-3.771.02h-.001Zm-72.702-.299c-1.34.015-2.683-.019-4.023-.003-2.297.027-4.632.127-6.929.083-.708-.013-.74-.445-.544-1.033.545-.025 1.49-.117 1.651-.749l.032-11.815c-.15-.901-1.431-.557-1.587-.777-.03-.3-.166-.822.185-.934l6.273.003c.245.12.165.76.063.99-.611.047-1.42-.024-1.608.719l.052 11.942c.135.195.244.36.493.393 2.004.267 3.747-.405 4.576-2.302.335-.767.176-1.743 1.366-1.22v4.703Zm17.911-.128c-.176-.054-.128-.716-.075-.888.379-.277.983.02 1.079-.622-.177-.322-1.587-2.64-1.745-2.637-.085.001-.166.009-.223.083-.27.498-2.058 1.993-2.1 2.412-.017.168.3.502.449.561.285.114.959-.022 1.062.125l-.038.934-4.721-.037v-.97c.139-.2 1.109.089 1.34-.218l3.44-3.891c.021-.11-1.047-1.65-1.205-1.885-.438-.656-1.624-2.58-2.254-2.856-.234-.104-.431-.09-.676-.102l-.088-.902 6.162-.049-.032.892c-.104.148-1.227-.104-1.156.62.01.103 1.004 1.532 1.157 1.734.08.109.311.473.431.448.242-.423 1.691-1.68 1.732-2.04.02-.18-.297-.573-.443-.639-.254-.115-.818.024-.917-.123l-.032-.892h4.49c.198.102.117.896.027.95l-.658.12c-1.296 1.002-2.314 2.404-3.413 3.622l3.34 4.955c.35.387.824.166 1.229.328l-.042.966h-6.122l.002.001Z" fill="#073163"/><path d="M141.161 11.49c-.036.006-.175.08-.186.125-.054 1.485.505 3.339 2.032 3.876 1.576.553 3.319.002 4.561-1.032.564.84.483.879-.17 1.478-1.27 1.166-2.617 1.937-4.396 1.938-7.039.003-7.407-12.293.592-11.804 2.72.167 4.552 2.422 4.234 5.163-.013.108-.009.19-.114.256h-6.553Zm-.092-1.056c.241.232 1.557.03 1.931.014.273-.01 1.533.07 1.628-.066.12-1.136-.249-3.401-1.772-3.269-.93.08-1.414.953-1.637 1.765-.074.27-.311 1.4-.15 1.556Zm-79.523 1.052c-.08.025-.157.218-.161.317-.044 1.243.446 2.793 1.544 3.473.994.616 2.703.584 3.733.027.376-.204.627-.56.986-.782.21.29.626.713.411 1.078-.11.188-.73.826-.92.997-1.154 1.033-2.525 1.365-4.052 1.26-6.502-.445-6.84-12.427 1.105-11.773 2.263.187 3.651 1.718 3.99 3.906.067.437.202 1.12-.017 1.498h-6.62l.001-.001Zm0-.963h3.384c.233 0 .189-.697.183-.85-.048-1.111-.437-2.599-1.802-2.56-.917.025-1.552.882-1.754 1.718-.066.27-.25 1.618-.01 1.693Zm38.955-1.388c.136.028.145-.037.203-.126.168-.259.304-.855.484-1.2.349-.667.93-1.387 1.687-1.618 2.119-.647 3.438 1.179 2.028 2.866-.54.644-.469.277-1.018-.007-1.013-.523-2.172-.018-2.822.82-1.052 1.359-.367 4.056-.557 5.704.178.513.502.817 1.043.941.179.04.63.021.697.116v.737l-6.562.07-.044-.805c.973-.2 1.443-.258 1.528-1.341.166-2.08-.125-4.374-.007-6.478-.029-.187-.341-.759-.491-.846-.187-.109-.798-.096-.88-.209v-.664l4.666-1.005c.258.06.046.784.04.97-.023.69.022 1.387.003 2.078l.002-.003Zm11.551 7.415-.011.766-.175.121-6.325-.01-.053-.809c.12-.165 1.197-.017 1.505-.79.235-.592.086-2.95.091-3.754.005-.812.044-1.44 0-2.286-.048-.92.189-2.136-1.177-2.041l-.081-.624.075-.148 4.273-.918.29.064-.032 9.051c.1 1.037.608 1.345 1.622 1.377l-.002.001Zm-3.576-15.501c.562-.066.945-.01 1.425.278 1.464.88.906 3.194-.844 3.398-2.75.319-3.035-3.386-.581-3.675v-.001Z" fill="#073163"/><path d="M46.64 30.497v-6.119h1.136v6.12H46.64Zm3.316 0v-6.119h.935l2.675 4.467h-.49l2.632-4.467h.935l.009 6.12h-1.075l-.009-4.433h.227l-2.238 3.733h-.507l-2.272-3.733h.262v4.432h-1.084Zm8.873 0v-6.119h.936l2.675 4.467h-.49l2.631-4.467h.936l.008 6.12H64.45l-.008-4.433h.227l-2.238 3.733h-.507l-2.273-3.733h.262v4.432H58.83Zm8.874 0v-6.119h1.136v6.12h-1.136Zm6.174.088c-.477 0-.917-.076-1.32-.227a3.252 3.252 0 0 1-1.04-.656 3.004 3.004 0 0 1-.69-1.005 3.19 3.19 0 0 1-.245-1.26c0-.454.081-.873.245-1.258.163-.385.393-.717.69-.996a3.139 3.139 0 0 1 1.058-.656 3.593 3.593 0 0 1 1.32-.236c.519 0 .985.084 1.399.253.42.17.772.417 1.057.743l-.716.7a2.295 2.295 0 0 0-.779-.525 2.298 2.298 0 0 0-.909-.175c-.32 0-.617.053-.891.158-.274.105-.51.253-.708.445-.198.193-.353.42-.464.682a2.31 2.31 0 0 0-.157.866c0 .309.052.594.157.857.111.262.266.492.464.69.198.192.43.341.699.446.268.105.565.157.892.157.303 0 .594-.046.874-.14.285-.099.556-.262.813-.49l.647.849c-.32.256-.694.452-1.12.585a4.311 4.311 0 0 1-1.276.193Zm1.32-.927v-2.29h1.076v2.439l-1.076-.149Zm3.099.84v-6.12h2.518c.542 0 1.005.088 1.39.262.39.175.69.426.9.752.21.327.315.714.315 1.163 0 .449-.105.836-.315 1.163-.21.32-.51.568-.9.743-.385.169-.848.253-1.39.253h-1.889l.507-.516v2.3h-1.136Zm4.004 0-1.548-2.221h1.216l1.556 2.22H82.3Zm-2.868-2.177-.507-.542h1.836c.501 0 .877-.108 1.128-.324.256-.215.385-.515.385-.9 0-.39-.129-.69-.385-.9-.25-.21-.627-.315-1.128-.315h-1.836l.507-.56v3.54Zm4.917 2.176 2.754-6.119h1.119l2.762 6.12h-1.189l-2.369-5.517h.455l-2.36 5.516h-1.172Zm1.268-1.416.306-.891h3.304l.306.891h-3.916Zm7.604 1.416V25.34h-2.028v-.962h5.192v.962h-2.028v5.157h-1.136Zm4.542 0v-6.119h1.136v6.12h-1.136Zm6.183.088a3.59 3.59 0 0 1-1.32-.236 3.228 3.228 0 0 1-1.049-.656 3.05 3.05 0 0 1-.691-.996 3.193 3.193 0 0 1-.244-1.26c0-.454.081-.87.244-1.25a2.93 2.93 0 0 1 .691-.996 3.155 3.155 0 0 1 1.049-.664 3.567 3.567 0 0 1 1.311-.236c.478 0 .915.078 1.312.236.402.157.751.379 1.049.664.297.28.527.612.69.997.163.379.245.795.245 1.25 0 .454-.082.874-.245 1.259a2.914 2.914 0 0 1-.69.996c-.298.28-.647.498-1.049.656a3.503 3.503 0 0 1-1.303.236Zm-.009-.997c.309 0 .595-.052.857-.157.262-.105.49-.254.682-.446.192-.198.341-.425.446-.682.11-.262.166-.55.166-.865 0-.315-.056-.6-.166-.857a2.013 2.013 0 0 0-.446-.682 1.945 1.945 0 0 0-.682-.454 2.286 2.286 0 0 0-.857-.158 2.28 2.28 0 0 0-.856.158 2.05 2.05 0 0 0-.682.454c-.193.193-.344.42-.455.682a2.242 2.242 0 0 0-.157.857c0 .309.052.594.157.857.111.262.262.492.455.69.192.192.419.341.682.446.262.105.547.157.856.157Zm5.025.91v-6.12h.935l3.838 4.712h-.463v-4.712h1.127v6.12h-.935l-3.838-4.712h.464v4.711h-1.128Zm-63.188 10 2.754-6.12h1.119l2.762 6.12H51.22l-2.369-5.517h.455l-2.36 5.516h-1.172Zm1.268-1.417.306-.891h3.304l.306.891h-3.916Zm8.567 1.504c-.478 0-.935-.067-1.373-.201-.437-.14-.783-.318-1.04-.534l.394-.882c.244.192.547.352.909.48.361.129.731.193 1.11.193.32 0 .58-.035.778-.105.198-.07.344-.163.437-.28a.66.66 0 0 0 .14-.41.549.549 0 0 0-.201-.447 1.393 1.393 0 0 0-.525-.27 7.185 7.185 0 0 0-.708-.193 13.984 13.984 0 0 1-.778-.2 3.705 3.705 0 0 1-.708-.307 1.587 1.587 0 0 1-.516-.507c-.134-.21-.2-.478-.2-.804 0-.332.087-.635.262-.91.18-.279.451-.5.813-.664.367-.169.83-.253 1.39-.253.367 0 .73.046 1.092.14.361.093.676.227.944.402l-.358.883a3.25 3.25 0 0 0-.848-.359 3.11 3.11 0 0 0-.84-.122c-.314 0-.57.038-.769.114a.968.968 0 0 0-.428.297.704.704 0 0 0-.131.42c0 .186.064.337.192.454.134.11.306.198.516.262.216.064.455.128.717.193.262.058.521.125.778.2.262.076.498.175.708.298.216.122.388.288.516.498.134.21.2.475.2.796 0 .326-.09.629-.27.909-.175.274-.446.495-.813.664-.367.163-.83.245-1.39.245Zm6.022 0c-.478 0-.935-.067-1.372-.201-.437-.14-.784-.318-1.04-.534l.393-.882c.245.192.548.352.909.48.361.129.731.193 1.11.193.32 0 .58-.035.778-.105.198-.07.344-.163.437-.28a.661.661 0 0 0 .14-.41.549.549 0 0 0-.2-.447 1.394 1.394 0 0 0-.525-.27 7.187 7.187 0 0 0-.709-.193 13.981 13.981 0 0 1-.777-.2 3.704 3.704 0 0 1-.709-.307 1.588 1.588 0 0 1-.515-.507c-.134-.21-.201-.478-.201-.804 0-.332.087-.635.262-.91.18-.279.451-.5.813-.664.367-.169.83-.253 1.39-.253.367 0 .731.046 1.092.14.362.093.677.227.945.402l-.359.883a3.25 3.25 0 0 0-.848-.359 3.11 3.11 0 0 0-.839-.122c-.315 0-.571.038-.77.114a.967.967 0 0 0-.428.297.704.704 0 0 0-.13.42c0 .186.063.337.192.454.134.11.305.198.515.262.216.064.455.128.717.193.262.058.522.125.778.2.262.076.498.175.708.298.216.122.388.288.516.498.134.21.201.475.201.796 0 .326-.09.629-.27.909-.176.274-.447.495-.814.664-.367.163-.83.245-1.39.245Zm4.125-.088v-6.119h1.137v6.12h-1.137Zm5.213.088c-.477 0-.935-.067-1.372-.201-.437-.14-.784-.318-1.04-.534l.393-.882c.245.192.548.352.91.48.36.129.73.193 1.11.193.32 0 .58-.035.777-.105.199-.07.344-.163.438-.28a.66.66 0 0 0 .14-.41.549.549 0 0 0-.202-.447 1.393 1.393 0 0 0-.524-.27 7.185 7.185 0 0 0-.708-.193 13.984 13.984 0 0 1-.778-.2 3.705 3.705 0 0 1-.708-.307 1.587 1.587 0 0 1-.516-.507c-.134-.21-.201-.478-.201-.804 0-.332.087-.635.262-.91.18-.279.452-.5.813-.664.367-.169.83-.253 1.39-.253.367 0 .731.046 1.093.14.361.093.676.227.944.402l-.359.883a3.25 3.25 0 0 0-.847-.359 3.11 3.11 0 0 0-.84-.122c-.314 0-.57.038-.769.114a.968.968 0 0 0-.428.297.704.704 0 0 0-.132.42c0 .186.065.337.193.454.134.11.306.198.516.262.215.064.454.128.716.193.263.058.522.125.778.2.263.076.499.175.709.298.215.122.387.288.515.498.134.21.201.475.201.796 0 .326-.09.629-.27.909-.175.274-.447.495-.814.664-.367.163-.83.245-1.39.245Zm5.282-.088V35.34h-2.028v-.962h5.192v.962h-2.028v5.157h-1.136Zm3.369 0 2.753-6.119h1.12l2.762 6.12h-1.19l-2.368-5.517h.454l-2.36 5.516H79.62Zm1.267-1.416.306-.891h3.305l.306.891h-3.917Zm6.67 1.416v-6.119h.936l3.837 4.712h-.463v-4.712h1.128v6.12h-.936l-3.837-4.712h.463v4.711h-1.127Zm8.843 0V35.34h-2.028v-.962h5.193v.962h-2.028v5.157H96.4Zm9.248.088a2.97 2.97 0 0 1-1.145-.21 1.913 1.913 0 0 1-.795-.577 1.33 1.33 0 0 1-.289-.848c0-.291.064-.553.193-.787.128-.233.332-.454.612-.664a6.42 6.42 0 0 1 1.075-.647 7.3 7.3 0 0 0 .804-.446c.198-.128.335-.25.411-.367a.634.634 0 0 0 .122-.367.526.526 0 0 0-.183-.42c-.123-.11-.298-.166-.525-.166-.245 0-.437.062-.577.184a.584.584 0 0 0-.201.463c0 .1.018.195.053.289.04.093.11.198.209.314.1.117.242.266.429.446l3.234 3.104-.603.708-3.497-3.357a4.616 4.616 0 0 1-.48-.534 1.757 1.757 0 0 1-.263-.472 1.523 1.523 0 0 1-.078-.48c0-.286.072-.536.218-.752a1.38 1.38 0 0 1 .621-.507c.268-.122.58-.184.935-.184.332 0 .618.056.857.166.245.105.434.26.568.464.14.198.21.437.21.716 0 .245-.061.473-.184.682-.122.204-.314.4-.577.586-.256.187-.6.382-1.031.586a4.873 4.873 0 0 0-.761.446 1.5 1.5 0 0 0-.402.42.908.908 0 0 0-.122.462c0 .17.049.318.148.446.105.129.251.23.438.306.186.07.405.105.655.105.373 0 .711-.081 1.014-.245a2.13 2.13 0 0 0 .778-.751c.21-.333.362-.743.455-1.233l.883.288c-.123.59-.335 1.096-.638 1.522-.298.42-.665.743-1.102.97a3.136 3.136 0 0 1-1.469.34Zm8.912-3.392h3.051v.962h-3.051v-.962Zm.096 3.304h-1.136v-6.119h4.467v.953h-3.331v5.166Zm7.753.088a3.59 3.59 0 0 1-1.32-.236 3.228 3.228 0 0 1-1.049-.656 3.031 3.031 0 0 1-.69-.996 3.175 3.175 0 0 1-.245-1.26c0-.454.081-.87.245-1.25.163-.384.393-.716.69-.996a3.155 3.155 0 0 1 1.049-.664 3.567 3.567 0 0 1 1.311-.236c.478 0 .915.079 1.312.236.402.157.752.379 1.049.664.297.28.527.612.69.997.164.379.245.795.245 1.25 0 .454-.081.874-.245 1.259a2.914 2.914 0 0 1-.69.996c-.297.28-.647.498-1.049.656a3.503 3.503 0 0 1-1.303.236Zm-.009-.997c.309 0 .595-.052.857-.157.262-.105.49-.254.682-.446a2.198 2.198 0 0 0 .612-1.547c0-.315-.055-.6-.166-.857a2.013 2.013 0 0 0-.446-.682 1.945 1.945 0 0 0-.682-.454 2.286 2.286 0 0 0-.857-.158c-.308 0-.594.053-.856.158a2.05 2.05 0 0 0-.682.454 2.14 2.14 0 0 0-.455.682 2.242 2.242 0 0 0-.157.857c0 .309.052.594.157.856.111.263.263.493.455.691.192.192.42.341.682.446.262.105.548.157.856.157Zm5.025.91v-6.12h2.518c.542 0 1.005.088 1.39.263.39.174.69.425.9.751.21.327.315.714.315 1.163 0 .449-.105.836-.315 1.163-.21.32-.51.568-.9.743-.385.169-.848.253-1.39.253h-1.888l.507-.516v2.3h-1.137Zm4.004 0-1.547-2.221h1.215l1.556 2.22h-1.224Zm-2.867-2.177-.507-.542h1.835c.502 0 .877-.108 1.128-.324.256-.215.385-.515.385-.9 0-.39-.129-.69-.385-.9-.251-.21-.626-.315-1.128-.315h-1.835l.507-.56v3.54Zm5.782 2.176v-6.119h.935l2.675 4.467h-.489l2.631-4.467h.935l.009 6.12h-1.075l-.009-4.433h.227l-2.238 3.733h-.507l-2.273-3.733h.263v4.432h-1.084Zm10.77.088c-.478 0-.935-.067-1.372-.201-.437-.14-.784-.318-1.04-.534l.393-.882c.245.192.548.352.909.48.361.129.731.193 1.11.193.321 0 .58-.035.778-.105.198-.07.344-.163.437-.28a.657.657 0 0 0 .14-.41.549.549 0 0 0-.201-.447 1.396 1.396 0 0 0-.524-.27 7.215 7.215 0 0 0-.708-.193 13.802 13.802 0 0 1-.778-.2 3.71 3.71 0 0 1-.709-.307 1.592 1.592 0 0 1-.515-.507c-.134-.21-.201-.478-.201-.804 0-.332.087-.635.262-.91.181-.279.452-.5.813-.664.367-.169.83-.253 1.39-.253.367 0 .731.046 1.093.14.361.093.676.227.944.402l-.359.883a3.244 3.244 0 0 0-.848-.359 3.107 3.107 0 0 0-.839-.122c-.315 0-.571.038-.769.114a.976.976 0 0 0-.429.297.706.706 0 0 0-.131.42c0 .186.064.337.193.454.134.11.306.198.515.262.216.064.455.128.717.193.263.058.522.125.778.2.263.076.499.175.708.298.216.122.388.288.516.498.134.21.201.475.201.796 0 .326-.09.629-.271.909-.175.274-.446.495-.813.664-.367.163-.83.245-1.39.245Z" fill="#2680CE"/></svg>