<svg width="155" height="37" fill="none" xmlns="http://www.w3.org/2000/svg"><path d="M4.856 17.428c-.386-.307-2.068-2.545-1.784-2.877h24.32c-.205 1.093-.995 1.961-1.66 2.837-.279.163-2.554-.035-3.115.037-.17.022-.291.045-.353.22l.066 18.763-.166.082-2.656-1.6V17.55l-.124-.12h-2.74l-.041 15.984-1.12-.72-1.62-.798V17.55l-.124-.12h-2.656l-.211.836c.124 3.6-.15 7.286 0 10.876.015.363.106.83.169 1.195l-.166.082c-.803-.67-1.802-1.008-2.656-1.6V17.551l-.124-.12H4.857v-.003ZM0 12.553c.048-2.322.916-4.663 2.257-6.577 6.045-8.631 21.783-7.74 26.66 1.553.829 1.577 1.19 3.3 1.298 5.026H0v-.002Zm3.278-2.477h23.658c.171 0 .115-.36.084-.48-.41-1.602-2.423-3.842-3.783-4.83C17.647.708 8.477 1.552 4.449 7.288c-.273.39-1.356 2.232-1.3 2.586.01.073.058.18.128.202h.001Z" fill="#4E88BA"/><path d="M80.61 22.951c.7-.124 1.575-.055 1.778-.885.188-.774.014-2.358.035-3.243.067-2.787.266-5.762.09-8.55-.019-.292-.076-.94-.215-1.153-.4-.619-1.442-.373-1.578-.558v-.97l.25-.079c3.26.198 6.644-.284 9.885.083 3.768.426 5.114 5.04 1.672 6.888-.402.216-.83.283-1.18.462-.73.373 1.004.367 1.229.583 3.541 1.36 3.483 5.999.231 7.696-1.62.845-2.86.753-4.607.752-2.464 0-4.928.008-7.391.004l-.196-.131-.002-.9-.002.001Zm5.76-14.233-.124.119v5.754c0 .265.997.213 1.208.203 4.474-.222 4.028-6.076.66-6.076h-1.743Zm-.125 7.352v6.513c0 .06.201.18.292.198.487.09 1.86 0 2.368-.114 1.442-.33 2.159-1.513 2.24-2.877.179-2.96-2.059-4.242-4.901-3.72h.001Zm43.655 6.88-.006.74-.123.12-5.135.57-.198-.125.074-1.746-.209-.048c-1.975 3.4-6.735 1.975-8.177-1.156-.769-1.67-.788-4.331-.122-6.033 1.194-3.05 5.277-4.606 8.302-3.117l.195-.134c-.249-1.118.249-2.363-.129-3.45-.209-.604-1.023-.727-1.604-.734l.01-.949c1.226-.156 2.452-.324 3.676-.495.273-.039 1.695-.463 1.782-.108l-.072 15.416c.108 1.015.763 1.246 1.735 1.247l.001.001Zm-9.343-1.554c1.219 1.085 3.559 1.055 3.917-.768.208-1.057.144-4.786.027-5.947-.224-2.22-2.853-2.297-4.138-.807-1.378 1.6-1.433 6.072.193 7.522h.001Zm22.217-8.164c0 .075.11.207-.006.355-.584-.041-.953-.64-1.617-.638-.635.002-.009.55.106.784.566 1.148.507 2.93-.197 4.003-1.195 1.827-3.626 2.26-5.715 2.088-.687-.057-1.471-.625-1.541.357-.057.806.523 1.181 1.289 1.244 2.391.197 6.988-.863 7.872 2.091.808 2.698-1.58 4.69-4.025 5.363-1.855.51-5.645.576-7.301-.434-1.545-.943-1.731-3.164-.062-4.097.204-.114 1.46-.437 1.103-.695-1.389-.667-1.616-2.495-.564-3.58.182-.188 1.136-.734 1.112-.847-.983-.563-1.905-1.458-2.139-2.578-.837-4.011 3.33-5.68 6.809-5.036.291.054 1.157.457 1.264.456.134 0 .662-.316.996-.316h2.49l.124.12c.005.452-.005.905 0 1.358l.002.002Zm-6.663-.58c-1.757.31-1.777 3.414-1.393 4.66.563 1.828 2.631 1.959 3.2.115.227-.734.215-2.883-.083-3.595-.275-.657-.925-1.322-1.723-1.18h-.001Zm-1.743 11.668c-2.052.306-1.483 2.567.046 3.194 1.303.534 4.822.579 5.471-.92.464-1.073-.075-2.154-1.301-2.295-.811-.094-3.426-.096-4.215.021h-.001Zm-81.492-.338c-1.508.016-3.02-.02-4.528-.004-2.585.03-5.213.137-7.798.09-.797-.014-.833-.48-.612-1.115.613-.026 1.675-.125 1.858-.807L41.83 9.4c-.168-.971-1.61-.6-1.786-.837-.033-.325-.187-.888.21-1.008l7.06.003c.275.13.184.82.07 1.069-.688.05-1.6-.027-1.81.775l.058 12.881c.153.211.275.388.556.424 2.255.289 4.217-.437 5.15-2.483.377-.828.198-1.88 1.537-1.317v5.075Zm20.129 0c-.197-.059-.143-.775-.084-.96.424-.3 1.1.022 1.207-.673-.198-.348-1.775-2.853-1.952-2.85-.095.001-.186.01-.249.09-.303.538-2.302 2.154-2.35 2.607-.018.181.337.542.503.606.319.124 1.072-.023 1.187.136l-.042 1.009-5.281-.04v-1.05c.156-.215 1.24.098 1.5-.234l3.847-4.207c.024-.118-1.171-1.783-1.347-2.037-.49-.709-1.818-2.788-2.522-3.087-.262-.112-.482-.097-.757-.11l-.098-.975 6.894-.053-.037.964c-.116.16-1.372-.113-1.292.67.01.111 1.123 1.656 1.294 1.875.09.117.348.511.482.484.271-.457 1.892-1.816 1.937-2.205.022-.194-.332-.619-.495-.69-.284-.125-.915.025-1.026-.134l-.035-.964h5.022c.222.11.131.969.03 1.027l-.736.13c-1.45 1.083-2.588 2.598-3.818 3.915l3.736 5.356c.391.418.922.18 1.375.354l-.046 1.045h-6.85.003Z" fill="#073163"/><path d="M147.214 17.429c-.041.006-.198.085-.21.134-.061 1.6.57 3.597 2.291 4.176 1.776.595 3.742.002 5.142-1.111.636.904.544.946-.192 1.591-1.432 1.257-2.95 2.087-4.956 2.088-7.937.003-8.351-13.243.667-12.715 3.067.178 5.133 2.608 4.774 5.56-.014.117-.01.206-.128.277h-7.388Zm-.104-1.138c.271.25 1.755.033 2.177.016.308-.012 1.729.074 1.835-.072.136-1.224-.28-3.664-1.998-3.521-1.048.086-1.594 1.026-1.845 1.9-.084.292-.351 1.51-.169 1.677Zm-89.047 1.138c-.09.027-.178.235-.182.343-.049 1.341.503 3.014 1.743 3.748 1.122.665 3.05.63 4.212.03.425-.22.709-.605 1.114-.845.237.312.706.77.463 1.164-.123.202-.824.892-1.039 1.076-1.301 1.116-2.849 1.474-4.572 1.36-7.338-.48-7.72-13.415 1.248-12.708 2.553.201 4.12 1.854 4.502 4.216.076.472.228 1.21-.019 1.617h-7.47v-.001Zm0-1.04h3.819c.263 0 .213-.752.207-.918-.054-1.199-.494-2.804-2.035-2.763-1.034.028-1.75.953-1.978 1.855-.075.292-.284 1.747-.011 1.828l-.002-.001Zm43.788-1.518c.152.031.162-.04.228-.138.188-.284.34-.938.542-1.316.391-.733 1.041-1.524 1.889-1.778 2.374-.71 3.853 1.295 2.272 3.147-.604.706-.524.304-1.14-.008-1.135-.574-2.433-.02-3.162.9-1.178 1.491-.41 4.453-.624 6.262.2.563.563.896 1.169 1.033.2.044.706.023.781.126v.81l-7.352.076-.049-.883c1.09-.219 1.616-.283 1.713-1.472.185-2.284-.141-4.802-.01-7.11-.032-.206-.381-.834-.55-.93-.209-.119-.893-.105-.986-.229v-.729l5.229-1.104c.289.066.051.861.044 1.066-.025.758.026 1.523.003 2.28l.003-.003Zm12.866 8.152-.013.828-.196.13-7.085-.01-.059-.875c.134-.179 1.341-.018 1.686-.854.263-.64.096-3.188.102-4.058.005-.878.05-1.557 0-2.47-.055-.995.211-2.31-1.318-2.208l-.091-.674.084-.16 4.787-.992.324.07-.035 9.783c.111 1.121.68 1.455 1.816 1.489h-.002Zm-4.085-16.84c.611-.072 1.028-.011 1.55.3 1.594.95.987 3.445-.918 3.665-2.994.344-3.304-3.652-.632-3.964v-.001Z" fill="#073163"/></svg>