<?xml version="1.0" encoding="utf-8"?><svg xmlns="http://www.w3.org/2000/svg" xmlns:xlink="http://www.w3.org/1999/xlink"><symbol viewBox="0 0 20 20" id="alert-triangle" xmlns="http://www.w3.org/2000/svg"><path d="M10 7.5v3.333m0 3.334h.008M8.846 3.243L1.992 15.082c-.38.657-.57.985-.542 1.254a.833.833 0 00.339.588c.219.16.598.16 1.357.16h13.708c.759 0 1.138 0 1.358-.16a.833.833 0 00.338-.588c.028-.27-.162-.597-.542-1.254L11.154 3.243c-.379-.654-.568-.981-.815-1.091a.833.833 0 00-.677 0c-.248.11-.437.437-.816 1.091z" stroke-width="1.5" stroke-linecap="round" stroke-linejoin="round"/></symbol><symbol viewBox="0 0 20 20" id="arrow-down" xmlns="http://www.w3.org/2000/svg"><path d="M5 7.5l5 5 5-5" stroke-linecap="round" stroke-linejoin="round"/></symbol><symbol viewBox="0 0 15 15" id="arrow-left" xmlns="http://www.w3.org/2000/svg"><path d="M9.375 11.25L5.625 7.5l3.75-3.75" stroke-linecap="round" stroke-linejoin="round"/></symbol><symbol viewBox="0 0 25 24" id="arrow-right" xmlns="http://www.w3.org/2000/svg"><path d="M9.5 18l6-6-6-6" stroke-width="2" stroke-linecap="round" stroke-linejoin="round"/></symbol><symbol viewBox="0 0 25 25" id="btn-ai" xmlns="http://www.w3.org/2000/svg"><path d="M12.5 0C19.404 0 25 5.596 25 12.5S19.404 25 12.5 25 0 19.404 0 12.5 5.596 0 12.5 0zm-.347 17.144c-.399 0-.742.14-1.029.421-.287.277-.43.612-.43 1.003 0 .396.143.735.43 1.017.287.277.63.415 1.03.415.267 0 .51-.065.729-.193.219-.13.395-.301.526-.516.136-.22.204-.46.204-.723 0-.391-.146-.726-.438-1.003a1.41 1.41 0 00-1.022-.421zM12.525 5c-.817 0-1.564.153-2.24.458a3.866 3.866 0 00-1.62 1.354c-.41.591-.63 1.317-.665 2.176h2.219c.034-.506.163-.92.386-1.239.224-.324.507-.563.847-.716.34-.153.699-.228 1.073-.228.414 0 .789.086 1.124.258.341.167.613.405.818.715.204.31.306.678.306 1.103 0 .353-.067.676-.204.967a2.58 2.58 0 01-.554.772 4.755 4.755 0 01-.788.61c-.453.267-.84.563-1.162.887-.32.325-.569.75-.744 1.275-.17.525-.26 1.231-.27 2.119v.136h2.088v-.136c.01-.55.072-1.01.19-1.382.116-.372.3-.695.554-.967a4.915 4.915 0 011.008-.787 4.965 4.965 0 001.124-.888 3.58 3.58 0 00.73-1.138c.17-.43.255-.912.255-1.447 0-.778-.188-1.458-.563-2.04-.37-.588-.89-1.043-1.561-1.368-.672-.33-1.455-.494-2.35-.494z"/></symbol><symbol viewBox="0 0 20 20" id="check" xmlns="http://www.w3.org/2000/svg"><path d="M16.667 5L7.5 14.167 3.333 10" stroke-linecap="round" stroke-linejoin="round"/></symbol><symbol viewBox="0 0 20 20" id="close" xmlns="http://www.w3.org/2000/svg"><path d="M16.667 3.333L3.333 16.667m0-13.334l13.334 13.334" stroke-linecap="round" stroke-linejoin="round"/></symbol><symbol viewBox="0 0 32 32" id="gulp" xmlns="http://www.w3.org/2000/svg"><path d="M22.154 1a.14.14 0 00-.093.033l-3.715 4.412-.758 2.606a48.434 48.434 0 00-1.592-.024c-3.86 0-6.996.41-6.996.916 0 1.21 13.99 1.21 13.99 0 0-.375-1.675-.691-4.09-.841l.6-2.145 3.475-4.18.005-.006c.078-.08-.074-.324-.322-.537-.186-.16-.381-.239-.504-.234zm-4.851 8.076l-.014.041c-.006.005-.006.012-.006.018 0 .075.303.136.672.136.37 0 .674-.061.674-.136l.012-.047c.097.035.15.075.15.121 0 .121-.375.22-.842.215-.454 0-.83-.092-.83-.213 0-.052.075-.1.184-.135zm5.61.344c-1.852.987-11.963.994-13.821.014l.822 7.232c.357-1.153 1.26-2.71 2.422-3.182.38-.156.768-.155 1.13.053.316.173.582.536.612.68.073.375-.12.523-.271.523-.182 0-.321-.264-.412-.42-.248-.42-.624-.439-1.024-.162-.418.288-.781.773-1.035 1.194a6.631 6.631 0 00-.727 1.625c-.09.323-.174.84-.035 1.146.061.127.151.207.297.207.303 0 .743-.38.955-.582.272-.259.623-.663.756-.922l.316-.892c.157-.392.598-.323.598 0 0 .588-.222.784-.603 2-.351 1.124-.461 1.488-.461 1.488-.042.16-.206.432-.381.432-.073 0-.126-.025-.156-.07-.061-.082-.055-.304-.05-.362.013-.184.381-1.28.442-1.453a7.36 7.36 0 01-.387.38c-.327.295-.852.68-1.3.68a.762.762 0 01-.465-.138l.459 4.588c.12.288 2.373.986 5.338.986 2.97 0 5.22-.703 5.336-.986l.66-5.452c-.345.3-.744.67-1.186.854-.327.133-1.053.218-1.053-.33 0-.3.552-.852.872-1.238.085-.098.283-.34.283-.467 0-.167-.362-.129-.707.142a3.373 3.373 0 00-.528.56c-.26.347-.398.645-.513.893-.375.818-.248.496-.551 1.268-.303.767-.254.68-.315.807a.565.565 0 01-.242.26.38.38 0 01-.369-.018c-.054-.035-.08-.11-.08-.213 0-.052.008-.104.02-.156.09-.352.472-1.043.908-1.977.097-.213.06-.15.047-.133-.375.346-.66.514-.871.606-.351.15-.787.15-.877-.237-.006-.023-.006-.047-.012-.07-.714.53-1.47.674-1.21-.467-.277.473-.763.86-1.357.86-.247 0-.429-.08-.519-.293-.139-.317.078-.86.277-1.373.103-.26.244-.57.432-.934.097-.196.253-.312.459-.26a.54.54 0 01.098.041c.157.104.096.258.017.414-.23.432-.43.75-.562 1.2-.054.19-.122.52.09.52a.728.728 0 00.417-.14c.278-.196.502-.489.672-.777a3.85 3.85 0 00.34-.709c.03-.098.068-.19.11-.277.067-.144.156-.293.314-.293.079 0 .144.029.193.086.103.127.08.257.026.396-.121.323-.284.612-.418.963-.08.202-.164.461-.164.674 0 .196.224.15.412.068.145-.063.29-.16.412-.257.073-.282.054-.22 1.598-3.932.079-.19.224-.272.369-.272a.34.34 0 01.193.065c.103.075.105.234.063.355-.042.11-.038.076-.274.606-.315.697-.52 1.2-.799 1.84-.115.265-.465 1.089-.525 1.285-.036.127-.08.334.06.334.328 0 1.169-.756 1.399-.98.012-.018.03-.024.055-.036.036-.11.071-.212.101-.316.085-.22.164-.475.322-.653.048-.058.103-.091.163-.091.169 0 .253.068.253.23 0 .063-.04.295-.066.358.085-.086.175-.172.272-.258.908-.801 1.554-.393 1.554.011 0 .426-.538 1.02-.834 1.348-.097.11-.296.311-.302.37 0 .074.053.105.132.105.121 0 .388-.203.485-.272.303-.225.713-.57 1.004-.812l.896-7.885zM10.93 24.03l.902 1.465.352 4.576c0 .513 1.712.928 3.818.928s3.818-.415 3.818-.928l.28-4.623.851-1.418c-2.397.963-7.527.997-10.021 0z"/></symbol><symbol viewBox="0 0 20 21" id="user" xmlns="http://www.w3.org/2000/svg"><path d="M2.5 17.167c1.946-2.065 4.59-3.334 7.5-3.334s5.553 1.27 7.5 3.334M13.75 6.75a3.75 3.75 0 11-7.5 0 3.75 3.75 0 017.5 0z" stroke-linecap="round" stroke-linejoin="round"/></symbol></svg>